<svg width="24" height="24" viewBox="0 0 24 24" fill="none" xmlns="http://www.w3.org/2000/svg">
<path fill-rule="evenodd" clip-rule="evenodd" d="M13.9057 12.4057C13.9057 12.0321 13.5999 11.7306 13.2237 11.7306H12.0642V10.5827C12.0642 10.2103 11.7595 9.90756 11.3821 9.90756C11.0059 9.90756 10.7001 10.2103 10.7001 10.5827V11.7306H9.5406C9.16433 11.7306 8.85855 12.0321 8.85855 12.4057C8.85855 12.7793 9.16433 13.0809 9.5406 13.0809H10.7001V14.2287C10.7001 14.6023 11.0059 14.9039 11.3821 14.9039C11.7595 14.9039 12.0642 14.6023 12.0642 14.2287V13.0809H13.2237C13.5999 13.0809 13.9057 12.7793 13.9057 12.4057Z" fill="#999999"/>
<path fill-rule="evenodd" clip-rule="evenodd" d="M6.53725 8.43862H16.8214V13.6668H14.8901C14.2637 13.6668 13.7545 14.1709 13.7545 14.791V17.0416L6.53725 17.0427V8.43862ZM5.13449 6.07095L18.0627 6.06757L18.0638 7.31329H6.53723C6.53269 7.31329 6.52928 7.31554 6.52473 7.31554H5.13676L5.13449 6.07095ZM14.89 14.7921H16.0177L14.8912 15.9061L14.89 14.7921ZM14.5615 17.8361L17.6273 14.7899C17.6273 14.7899 17.6273 14.7887 17.6284 14.7887L17.791 14.6267C17.9206 14.4984 17.9536 14.3206 17.9285 14.1473C17.9354 14.0955 17.9581 14.0483 17.9581 13.9965V8.43861H18.065C18.6902 8.43861 19.1994 7.9356 19.1994 7.31556V6.06759C19.1994 5.44867 18.6902 4.94566 18.065 4.94566H16.5383V3.67518C16.5383 3.30158 16.2337 3 15.8563 3C15.48 3 15.1742 3.30158 15.1742 3.67518V4.94566H8.29008V3.67518C8.29008 3.30158 7.98543 3 7.60803 3C7.23177 3 6.92598 3.30158 6.92598 3.67518V4.94566H5.13447C4.50813 4.94566 4 5.44867 4 6.06759V7.31556C4 7.9356 4.50813 8.43861 5.13447 8.43861H5.40047V17.0427C5.40047 17.6616 5.91087 18.1669 6.53722 18.1669H13.7567C14.0568 18.1669 14.3501 18.0465 14.5615 17.8361Z" fill="#999999"/>
<path fill-rule="evenodd" clip-rule="evenodd" d="M19.4316 9.14641C19.1179 9.14641 18.8633 9.39847 18.8633 9.70906L18.8644 18.8747H8.01188C7.697 18.8747 7.44351 19.1256 7.44351 19.4373C7.44351 19.7479 7.697 20 8.01188 20H18.8644C19.4907 20 20 19.4947 20 18.8747V9.70906C20 9.39847 19.7454 9.14641 19.4316 9.14641Z" fill="#999999"/>
</svg>
