<svg width="24" height="24" viewBox="0 0 24 24" fill="none" xmlns="http://www.w3.org/2000/svg">
<path fill-rule="evenodd" clip-rule="evenodd" d="M6.1012 16.208L6.11001 9.41809H14.9711V16.208C14.9711 16.214 14.9667 16.218 14.9601 16.218L6.1012 16.208ZM14.971 7.31767V8.41314H6.11107L6.11217 7.30762L14.971 7.31767ZM16.0722 16.2079V7.31757C16.0722 6.75777 15.5734 6.3025 14.96 6.3025H13.9602V5.50251C13.9602 5.22512 13.7135 5 13.4096 5C13.1046 5 12.859 5.22512 12.859 5.50251V6.3025H8.28147V5.50251C8.28147 5.22512 8.03591 5 7.73089 5C7.42697 5 7.18031 5.22512 7.18031 5.50251V6.3025H6.11218C5.49883 6.3025 5 6.75777 5 7.31757V16.2079C5 16.7677 5.49883 17.223 6.11218 17.223H14.96C15.5734 17.223 16.0722 16.7677 16.0722 16.2079ZM17.4494 8.41321C17.1455 8.41321 16.8988 8.63833 16.8988 8.91572V17.995H7.13149C6.82757 17.995 6.58091 18.2202 6.58091 18.4975C6.58091 18.7759 6.82757 19 7.13149 19H16.9968C17.5496 19 18 18.589 18 18.0855V8.91572C18 8.63833 17.7533 8.41321 17.4494 8.41321ZM7.86581 10.2534H7.3846C7.08068 10.2534 6.83402 10.4785 6.83402 10.7559C6.83402 11.0333 7.08068 11.2584 7.3846 11.2584H7.86581C8.16973 11.2584 8.41639 11.0333 8.41639 10.7559C8.41639 10.4785 8.16973 10.2534 7.86581 10.2534ZM9.79391 10.2534H9.3127C9.00878 10.2534 8.76212 10.4785 8.76212 10.7559C8.76212 11.0333 9.00878 11.2584 9.3127 11.2584H9.79391C10.0978 11.2584 10.3445 11.0333 10.3445 10.7559C10.3445 10.4785 10.0978 10.2534 9.79391 10.2534ZM11.722 10.2534H11.2408C10.9369 10.2534 10.6902 10.4785 10.6902 10.7559C10.6902 11.0333 10.9369 11.2584 11.2408 11.2584H11.722C12.0259 11.2584 12.2726 11.0333 12.2726 10.7559C12.2726 10.4785 12.0259 10.2534 11.722 10.2534ZM13.6501 10.2534H13.1689C12.865 10.2534 12.6183 10.4785 12.6183 10.7559C12.6183 11.0333 12.865 11.2584 13.1689 11.2584H13.6501C13.954 11.2584 14.2007 11.0333 14.2007 10.7559C14.2007 10.4785 13.954 10.2534 13.6501 10.2534ZM7.86581 12.1851H7.3846C7.08068 12.1851 6.83402 12.4102 6.83402 12.6876C6.83402 12.965 7.08068 13.1901 7.3846 13.1901H7.86581C8.16973 13.1901 8.41639 12.965 8.41639 12.6876C8.41639 12.4102 8.16973 12.1851 7.86581 12.1851ZM9.79391 12.1851H9.3127C9.00878 12.1851 8.76212 12.4102 8.76212 12.6876C8.76212 12.965 9.00878 13.1901 9.3127 13.1901H9.79391C10.0978 13.1901 10.3445 12.965 10.3445 12.6876C10.3445 12.4102 10.0978 12.1851 9.79391 12.1851ZM11.722 12.1851H11.2408C10.9369 12.1851 10.6902 12.4102 10.6902 12.6876C10.6902 12.965 10.9369 13.1901 11.2408 13.1901H11.722C12.0259 13.1901 12.2726 12.965 12.2726 12.6876C12.2726 12.4102 12.0259 12.1851 11.722 12.1851ZM13.6501 12.1851H13.1689C12.865 12.1851 12.6183 12.4102 12.6183 12.6876C12.6183 12.965 12.865 13.1901 13.1689 13.1901H13.6501C13.954 13.1901 14.2007 12.965 14.2007 12.6876C14.2007 12.4102 13.954 12.1851 13.6501 12.1851ZM7.86581 14.1165H7.3846C7.08068 14.1165 6.83402 14.3416 6.83402 14.619C6.83402 14.8963 7.08068 15.1215 7.3846 15.1215H7.86581C8.16973 15.1215 8.41639 14.8963 8.41639 14.619C8.41639 14.3416 8.16973 14.1165 7.86581 14.1165ZM9.79391 14.1165H9.3127C9.00878 14.1165 8.76212 14.3416 8.76212 14.619C8.76212 14.8963 9.00878 15.1215 9.3127 15.1215H9.79391C10.0978 15.1215 10.3445 14.8963 10.3445 14.619C10.3445 14.3416 10.0978 14.1165 9.79391 14.1165ZM11.722 14.1165H11.2408C10.9369 14.1165 10.6902 14.3416 10.6902 14.619C10.6902 14.8963 10.9369 15.1215 11.2408 15.1215H11.722C12.0259 15.1215 12.2726 14.8963 12.2726 14.619C12.2726 14.3416 12.0259 14.1165 11.722 14.1165ZM13.6501 14.1165H13.1689C12.865 14.1165 12.6183 14.3416 12.6183 14.619C12.6183 14.8963 12.865 15.1215 13.1689 15.1215H13.6501C13.954 15.1215 14.2007 14.8963 14.2007 14.619C14.2007 14.3416 13.954 14.1165 13.6501 14.1165Z" fill="current"/>
</svg>
