<svg width="24" height="24" viewBox="0 0 24 24" fill="none" xmlns="http://www.w3.org/2000/svg">
<path fill-rule="evenodd" clip-rule="evenodd" d="M12 7.95748H7.93693L10.1712 5.90655C10.393 5.70321 10.3977 5.36961 10.1824 5.16011C9.96707 4.95062 9.61193 4.94622 9.39195 5.14955L6.51359 7.79112C6.31319 7.97509 6.2032 8.22155 6.2032 8.48562C6.2032 8.74969 6.31319 8.99704 6.51453 9.181L9.39195 11.8217C9.50008 11.9212 9.64083 11.9713 9.78158 11.9713C9.92698 11.9713 10.0733 11.9176 10.1824 11.8111C10.3977 11.6025 10.393 11.268 10.1712 11.0647L7.93693 9.01376H12C14.6919 9.01376 16.8815 11.0172 16.8815 13.4783C16.8815 15.9403 14.6919 17.9437 12 17.9437C9.30806 17.9437 7.11853 15.9403 7.11853 13.4783C7.11853 13.1869 6.8678 12.9501 6.55927 12.9501C6.24981 12.9501 6 13.1869 6 13.4783C6 16.523 8.69101 19 12 19C15.309 19 18 16.523 18 13.4783C18 10.4345 15.309 7.95748 12 7.95748Z" fill="current"/>
</svg>
