<svg width="24" height="24" viewBox="0 0 24 24" fill="none" xmlns="http://www.w3.org/2000/svg">
<path fill-rule="evenodd" clip-rule="evenodd" d="M13.615 9.33164C13.3459 9.62751 13.2248 10.0236 13.2834 10.4188L13.7828 13.856L8.05513 12.0977L10.3853 9.53319C10.6534 9.23732 10.7745 8.84118 10.7169 8.44504L10.2165 5.00786L15.9521 6.76021L13.615 9.33164ZM16.1259 6.29351L16.0167 6.78893C16.0018 6.76908 16.0018 6.70454 16.0395 6.66284L15.9998 6.70653L16.1259 6.29351ZM16.7742 7.33007C16.9758 7.10867 17.0482 6.80287 16.9678 6.51198C16.8785 6.18434 16.6174 5.92521 16.2709 5.81898L10.4777 4.04975C10.1302 3.94153 9.7698 4.01302 9.51265 4.23343C9.28331 4.43001 9.17211 4.72389 9.2158 5.02173L9.73505 8.58799C9.74895 8.68926 9.71916 8.79052 9.65066 8.86499L7.22616 11.5337C7.02462 11.7551 6.95214 12.0619 7.03157 12.3518C7.12192 12.6804 7.38303 12.9386 7.72953 13.0448L10.0806 13.7626C10.0597 13.8004 10.0329 13.8341 10.019 13.8778L8.56053 18.6503C8.46422 18.9651 8.64194 19.2987 8.95667 19.394C9.01425 19.4118 9.07283 19.4208 9.13041 19.4208C9.38557 19.4208 9.62187 19.255 9.7003 18.9988L11.1588 14.2253C11.1717 14.1826 11.1677 14.1389 11.1717 14.0962L13.5227 14.814C13.6299 14.8478 13.7381 14.8637 13.8444 14.8637C14.0827 14.8637 14.31 14.7833 14.4877 14.6294C14.7171 14.4338 14.8273 14.1389 14.7846 13.8421L14.2653 10.2758C14.2504 10.1755 14.2812 10.0743 14.3497 9.9988L16.7742 7.33007Z" fill="current"/>
</svg>
