<svg width="16" height="16" viewBox="0 0 16 16" fill="none" xmlns="http://www.w3.org/2000/svg">
<path fill-rule="evenodd" clip-rule="evenodd" d="M8.00007 4.89142C7.58671 4.89142 7.25285 5.22632 7.25285 5.63857C7.25285 6.05189 7.58671 6.38573 8.00007 6.38573C8.41342 6.38573 8.74729 6.05189 8.74729 5.63857C8.74729 5.22632 8.41342 4.89142 8.00007 4.89142Z" fill="current"/>
<path fill-rule="evenodd" clip-rule="evenodd" d="M7.99991 7.11135C7.70739 7.11135 7.46997 7.34874 7.46997 7.64124V10.527C7.46997 10.8206 7.70739 11.0569 7.99991 11.0569C8.29244 11.0569 8.52985 10.8206 8.52985 10.527V7.64124C8.52985 7.34874 8.29244 7.11135 7.99991 7.11135Z" fill="current"/>
<path fill-rule="evenodd" clip-rule="evenodd" d="M8.0001 12.9402C5.27619 12.9402 3.05998 10.7242 3.05998 7.99946C3.05998 5.2758 5.27619 3.05978 8.0001 3.05978C10.724 3.05978 12.9402 5.2758 12.9402 7.99946C12.9402 10.7242 10.724 12.9402 8.0001 12.9402ZM8 1.99997C4.6921 1.99997 2 4.69184 2 7.99944C2 11.3081 4.6921 14 8 14C11.3079 14 14 11.3081 14 7.99944C14 4.69184 11.3079 1.99997 8 1.99997Z" fill="current"/>
</svg>
