<svg width="24" height="24" viewBox="-12 0 24 12" fill="none" xmlns="http://www.w3.org/2000/svg">
<path fill-rule="evenodd" clip-rule="evenodd" d="M0.399545 11.775C0.127104 11.4718 0.123724 10.9763 0.391994 10.6683L4.53109 5.91658L0.219201 1.35396C-0.0599394 1.05859 -0.0744095 0.563342 0.186881 0.247791C0.448172 -0.0677586 0.886277 -0.084116 1.16542 0.211255L5.62077 4.92568C5.62094 4.92585 5.6211 4.92602 5.62126 4.9262C5.62131 4.92625 5.62136 4.9263 5.62141 4.92636C6.11199 5.44489 6.12824 6.31479 5.6559 6.85611C5.65577 6.85625 5.65564 6.8564 5.65552 6.85654L1.37859 11.7665C1.11032 12.0745 0.671984 12.0783 0.399545 11.775Z" fill="current"/>
</svg>
