<svg width="24" height="24" viewBox="0 0 24 24" fill="none" xmlns="http://www.w3.org/2000/svg">
<path fill-rule="evenodd" clip-rule="evenodd" d="M17.0126 16.2052C16.9769 16.3614 16.8323 16.4703 16.6656 16.4703H16.4622H7.99588C7.8831 16.4703 7.77996 16.4221 7.71152 16.3363C7.67489 16.2891 7.61802 16.1918 7.64886 16.0597L8.7574 11.2747C8.79306 11.1214 8.93862 11.0096 9.10441 11.0096H17.7731C17.885 11.0096 17.9891 11.0588 18.0565 11.1436C18.0932 11.1899 18.152 11.2882 18.1202 11.4202L17.0126 16.2052ZM5.8704 16.0471V7.2945C5.8704 7.06123 6.03716 6.87037 6.24344 6.87037H8.84609C8.9338 6.87037 9.01863 6.90603 9.08514 6.97062L10.2592 8.09168C10.4886 8.31242 10.7884 8.43292 11.1007 8.43292H16.4622C16.6675 8.43292 16.8333 8.62378 16.8333 8.85705V10.1381H9.10442C8.52799 10.1381 8.03541 10.5247 7.90817 11.0789L6.79964 15.863C6.7524 16.0673 6.7659 16.2756 6.8247 16.4703H6.24344C6.03716 16.4703 5.8704 16.2804 5.8704 16.0471ZM18.7381 10.6009C18.5048 10.3069 18.153 10.1382 17.7732 10.1382H17.7048V8.8571C17.7048 8.14378 17.1476 7.56252 16.4622 7.56252H11.1008C11.0131 7.56252 10.9282 7.52782 10.8617 7.46323L9.68862 6.34217C9.45823 6.12143 9.16038 5.99997 8.84613 5.99997H6.24349C5.55812 5.99997 5 6.58123 5 7.29454V16.0471C5 16.7605 5.55812 17.3417 6.24349 17.3417H7.99593H16.4622H16.6656C17.2411 17.3417 17.7327 16.9552 17.8619 16.4019L18.9695 11.6169C19.0514 11.2592 18.9666 10.8891 18.7381 10.6009Z" fill="current"/>
</svg>
